<svg xmlns="http://www.w3.org/2000/svg" aria-hidden="true" overflow="hidden"
  style="position:absolute;width:0;height:0">
  <defs>
    <symbol id="icon-burger" viewBox="0 0 50 32">
      <path stroke="currentColor" stroke-linecap="round" stroke-width=".889"
        d="M41.956 8.889H7.823m34.133-7.111H7.823M41.956 16H7.823" />
    </symbol>
    <symbol id="icon-search" viewBox="0 0 32 32">
      <path
        d="M13.333 21.383a7.9 7.9 0 0 1 .005-15.802 7.902 7.902 0 0 1 .005 15.802zm0-1.729a6.124 6.124 0 1 0-.009 0z" />
      <path
        d="M13.116 8.691c-.247.148-.237.652.01.79.109.049.395.099.642.099.415 0 .681.079 1.531.484.464.217 1.353 1.116 1.56 1.57.316.721.425 1.067.484 1.6.069.602.178.79.444.79.514 0 .632-.77.286-1.867-.306-.958-.662-1.541-1.353-2.183-.81-.761-1.807-1.235-2.746-1.323-.425-.04-.761-.02-.859.04zm6.558 11.171c-.277.277-.514.523-.514.553 0 .069 1.343 1.64 1.886 2.193.079.089.365.425.642.751 1.857 2.252 2.341 2.765 2.805 2.943.464.188.484.188.919-.01.346-.158.494-.286.612-.563.405-.978.257-1.175-2.864-3.802a44.969 44.969 0 0 1-1.037-.889 146.384 146.384 0 0 0-1.778-1.541c-.128-.109-.237-.04-.672.365z" />
    </symbol>
    <symbol id="icon-shopbag" viewBox="0 0 25 32">
      <path
        d="M11.959 3.165c-1.548.282-2.864 1.415-3.358 2.893-.198.584-.232.974-.203 2.285l.025 1.152H4.451l-.049.109c-.025.064-.114.737-.198 1.499s-.193 1.761-.247 2.226a5026.753 5026.753 0 0 1-.989 8.68c-.252 2.166-.643 5.663-.643 5.747s.381.089 10.342.089h10.347l-.03-.307c-.015-.173-.143-1.291-.277-2.488-.139-1.197-.336-2.958-.445-3.907-.262-2.29-.292-2.547-.351-3.042-.03-.232-.129-1.123-.227-1.978a695.88 695.88 0 0 0-.292-2.597c-.069-.574-.188-1.662-.272-2.424s-.173-1.434-.198-1.499l-.049-.109h-3.972l.025-1.152c.015-.628.005-1.311-.02-1.508-.163-1.345-1.093-2.641-2.339-3.264a3.808 3.808 0 0 0-1.756-.43c-.341-.01-.722 0-.851.025zm1.395 1.964c.856.232 1.588.969 1.776 1.795.03.124.054.752.054 1.395v1.177h-5.045V8.319c.005-1.271.03-1.459.252-1.919.519-1.053 1.781-1.598 2.963-1.271zm-4.956 6.707c.015.46.005.495-.114.638a1.471 1.471 0 0 0-.356.875c-.04.465.069.816.356 1.133.668.742 1.746.549 2.171-.386.208-.46.099-1.222-.223-1.563-.089-.094-.094-.163-.084-.643l.015-.539h4.995l.015.539c.01.48.005.549-.084.643-.321.341-.43 1.103-.223 1.563.227.5.618.786 1.123.826 1.192.099 1.87-1.429 1.073-2.419-.148-.183-.153-.193-.139-.668l.015-.485h2.522l.084.742c.049.406.198 1.731.336 2.943.134 1.212.346 3.091.47 4.179.302 2.616.767 6.761.767 6.781 0 .01-3.803.02-8.457.02-4.649 0-8.457-.01-8.457-.02s.124-1.108.272-2.433c.153-1.33.351-3.096.445-3.927l.317-2.794c.168-1.439.534-4.699.579-5.119.015-.148.035-.302.049-.336.015-.049.292-.059 1.266-.049l1.251.015.015.485z" />
    </symbol>
    <symbol id="icon-black-heart" viewBox="0 0 43 32">
      <path
        d="M17.643 1.087C8.48.922 0 15.252 24.704 30.11c.027-.049.131-.049.159 0C50.364 14.773 40.507.001 31.038 1.151c-3.692.448-5.433 2.497-6.255 4.259-.82-1.762-2.563-3.811-6.254-4.259a8.53 8.53 0 0 0-.887-.063z" />
    </symbol>
    <symbol id="icon-circle" viewBox="0 0 32 32">
      <path
        d="M32 16c0 8.837-7.163 16-16 16S0 24.837 0 16 7.163 0 16 0s16 7.163 16 16z" />
    </symbol>
    <symbol id="icon-half-square-circle" viewBox="0 0 63 32">
      <path
        d="M48.85 31.858H.142V.141L49.7.168C57.281.651 63.293 7.554 63.293 16S57.281 31.349 49.7 31.832v.027h-.85z" />
    </symbol>
    <symbol id="icon-pentagon" viewBox="0 0 33 32">
      <path
        d="M.17 17.742 9.896.155l20.209 3.356 2.763 19.661-18.501 8.796L.17 17.743z" />
    </symbol>
    <symbol id="icon-rounded-stick" viewBox="0 0 35 32">
      <path
        d="M26.071 1.821 2.112 22.659c-2.331 2.228-2.79 5.596-.991 7.665s5.197 2.083 7.728.085l.006.006L33.079 9.346c2.331-2.228 2.79-5.596.991-7.665s-5.197-2.083-7.728-.085l-.005-.006-.265.23z" />
    </symbol>
    <symbol id="icon-star" viewBox="0 0 31 32">
      <path
        d="M11.987 24.35 1.181 26.792 5.816 16.73.155 7.207l11.002 1.299L18.464.179l2.165 10.865 10.178 4.376-9.664 5.416-1.017 11.032-8.138-7.518z" />
    </symbol>
    <symbol id="icon-triangle" viewBox="0 0 32 32">
      <path d="M31.634 20.539.175 31.841 5.207.068l26.427 20.47z" />
    </symbol>
    <symbol id="icon-arrow-right-slim" viewBox="0 0 115 32">
      <path
        d="M113.024 17.216c.64-.64.64-1.728 0-2.432L102.208 4.032A1.674 1.674 0 0 0 99.84 6.4l9.6 9.6-9.6 9.6a1.674 1.674 0 0 0 2.368 2.368l10.816-10.752zm-109.632.512h108.416v-3.456H3.392v3.456z" />
    </symbol>
    <symbol id="icon-plus" viewBox="0 0 30 32">
      <path stroke="currentColor" stroke-linecap="round" stroke-width="2.462"
        d="M16 3.2v25.6M27.077 16H2.462" />
    </symbol>
    <symbol id="icon-facebook" viewBox="0 0 32 32">
      <path
        d="M17.664 25.408v-8.704h2.4l.32-3h-2.72l.008-1.504c0-.784.08-1.2 1.2-1.2h1.504V8h-2.4c-2.896 0-3.912 1.456-3.912 3.904v1.8h-1.8v3h1.8v8.704h3.6z" />
    </symbol>
    <symbol id="icon-instagram" viewBox="0 0 32 32">
      <path
        d="M12.482 7.518c.91-.042 1.201-.052 3.518-.052h-.002c2.318 0 2.608.01 3.518.052s1.53.186 2.074.396a4.2 4.2 0 0 1 1.511.983l.001.001c.423.416.758.92.974 1.483l.01.029c.21.542.354 1.162.397 2.071.041.91.052 1.201.052 3.518s-.011 2.608-.052 3.518c-.042.908-.186 1.528-.396 2.07a4.205 4.205 0 0 1-.985 1.511l-.001.001a4.17 4.17 0 0 1-1.482.974l-.029.01c-.542.212-1.163.355-2.072.397-.91.042-1.2.052-3.518.052s-2.608-.01-3.518-.052c-.909-.042-1.528-.185-2.072-.396A4.194 4.194 0 0 1 8.9 23.1l-.001-.001a4.183 4.183 0 0 1-.974-1.483l-.01-.029c-.211-.542-.355-1.162-.397-2.071s-.052-1.2-.052-3.518.011-2.608.052-3.518c.04-.909.184-1.528.396-2.072a4.233 4.233 0 0 1 .984-1.511l.001-.001c.416-.423.92-.758 1.483-.974l.029-.01c.542-.21 1.162-.354 2.071-.396zm3.234 1.486h-.48v-.002c-1.591.002-1.896.012-2.683.048-.832.038-1.284.177-1.584.294a2.66 2.66 0 0 0-.982.638l-.001.001a2.642 2.642 0 0 0-.632.963l-.006.018c-.117.301-.256.752-.294 1.584-.041.9-.049 1.168-.049 3.447s.008 2.549.048 3.448c.038.832.178 1.284.294 1.584.155.399.34.682.638.982s.584.483.982.638c.301.117.752.256 1.584.294.9.041 1.17.05 3.449.05s2.549-.01 3.448-.05c.832-.038 1.284-.176 1.584-.294.385-.144.713-.362.981-.638l.001-.001c.298-.298.483-.582.638-.98.117-.301.256-.752.294-1.584.041-.9.05-1.17.05-3.448s-.008-2.547-.05-3.446c-.038-.832-.177-1.284-.294-1.584a2.661 2.661 0 0 0-.638-.981l-.001-.001a2.625 2.625 0 0 0-.963-.632l-.018-.006c-.301-.117-.752-.256-1.584-.294-.9-.041-1.17-.049-3.448-.049h-.286zM11.618 16a4.382 4.382 0 0 1 8.764 0 4.382 4.382 0 0 1-8.764 0zm7.228 0a2.845 2.845 0 0 0-5.69 0 2.845 2.845 0 0 0 5.69 0zm.686-4.555a1.023 1.023 0 1 1 2.048 0 1.023 1.023 0 1 1-2.048 0z" />
    </symbol>
    <symbol id="icon-pinterest" viewBox="0 0 32 32">
      <path
        d="M25.313 3.25C23.125 1.187 20.063 0 16.75 0c-5.125 0-8.25 2.063-10 3.813-2.125 2.188-3.313 5.063-3.313 7.875 0 3.563 1.5 6.313 4 7.313l.5.125c.5 0 .938-.375 1.063-.938l.375-1.438c.188-.625 0-.938-.375-1.438a4.597 4.597 0 0 1-1.062-3.198v.011c0-3.875 2.938-8.063 8.313-8.063 4.25 0 6.938 2.438 6.938 6.375 0 2.438-.563 4.75-1.5 6.438-.688 1.188-1.875 2.563-3.688 2.563-.75 0-1.5-.313-1.938-.875-.375-.563-.563-1.25-.375-1.938l.688-2.5c.5-1.438.938-2.875.938-4 0-1.875-1.188-3.188-2.938-3.188-2.25 0-4 2.25-4 5.125 0 1.438.375 2.5.563 2.938l-2.25 9.563c-.188.75-1.313 6.938.5 7.375 2.063.563 3.875-5.375 4.063-6.063l1-3.938c1 .938 2.625 1.625 4.125 1.625 2.938 0 5.563-1.313 7.438-3.688 1.75-2.313 2.75-5.563 2.75-9.125 0-2.75-1.188-5.5-3.25-7.5z" />
    </symbol>
    <symbol id="icon-twitter" viewBox="0 0 32 32">
      <path
        d="M32 6.08a13.16 13.16 0 0 1-3.773 1.027 6.607 6.607 0 0 0 2.88-3.58l.013-.046a13.504 13.504 0 0 1-4.173 1.6A6.56 6.56 0 0 0 15.756 11.1l-.009-.045a18.524 18.524 0 0 1-13.48-6.819l-.027-.034a6.502 6.502 0 0 0-.888 3.299 6.568 6.568 0 0 0 2.891 5.446l.023.015a6.512 6.512 0 0 1-3.006-.83l.033.017v.08a6.575 6.575 0 0 0 5.211 6.432l.043.008a6.745 6.745 0 0 1-3.002.1l.042.007c.864 2.629 3.273 4.504 6.127 4.56h.007a13.117 13.117 0 0 1-8.147 2.814c-.554 0-1.101-.034-1.637-.101l.064.006c2.839 1.848 6.312 2.947 10.043 2.947h.025-.001c12.187 0 19.067-10.293 18.667-19.52a13.871 13.871 0 0 0 3.267-3.4z" />
    </symbol>
  </defs>
</svg>
